<svg width="660" height="660" viewBox="0 0 660 660" fill="none" xmlns="http://www.w3.org/2000/svg">
<path d="M330.157 5C194.451 5 154.763 5.14 147.048 5.78C119.199 8.095 101.869 12.48 82.9899 21.88C68.4403 29.105 56.9657 37.48 45.641 49.22C25.0166 70.63 12.517 96.97 7.99213 128.28C5.7922 143.48 5.15222 146.58 5.02222 224.22C4.97222 250.1 5.02222 284.16 5.02222 329.845C5.02222 465.445 5.17222 505.095 5.8222 512.795C8.07213 539.895 12.322 556.945 21.3217 575.595C38.5212 611.295 71.3702 638.095 110.069 648.095C123.469 651.545 138.268 653.445 157.268 654.345C165.317 654.695 247.365 654.945 329.462 654.945C411.56 654.945 493.657 654.845 501.507 654.445C523.507 653.41 536.281 651.695 550.406 648.045C589.355 637.995 621.604 611.595 639.153 575.395C647.978 557.195 652.453 539.495 654.478 513.81C654.918 508.21 655.103 418.925 655.103 329.76C655.103 240.58 654.903 151.46 654.463 145.86C652.413 119.76 647.938 102.21 638.828 83.66C631.353 68.475 623.054 57.135 611.004 45.54C589.5 25 563.2 12.5 531.861 7.98C516.677 5.785 513.652 5.135 435.954 5H330.157Z" fill="url(#paint0_radial_2666_4805)"/>
<path d="M330.157 5C194.451 5 154.763 5.14 147.048 5.78C119.199 8.095 101.869 12.48 82.9899 21.88C68.4403 29.105 56.9657 37.48 45.641 49.22C25.0166 70.63 12.517 96.97 7.99213 128.28C5.7922 143.48 5.15222 146.58 5.02222 224.22C4.97222 250.1 5.02222 284.16 5.02222 329.845C5.02222 465.445 5.17222 505.095 5.8222 512.795C8.07213 539.895 12.322 556.945 21.3217 575.595C38.5212 611.295 71.3702 638.095 110.069 648.095C123.469 651.545 138.268 653.445 157.268 654.345C165.317 654.695 247.365 654.945 329.462 654.945C411.56 654.945 493.657 654.845 501.507 654.445C523.507 653.41 536.281 651.695 550.406 648.045C589.355 637.995 621.604 611.595 639.153 575.395C647.978 557.195 652.453 539.495 654.478 513.81C654.918 508.21 655.103 418.925 655.103 329.76C655.103 240.58 654.903 151.46 654.463 145.86C652.413 119.76 647.938 102.21 638.828 83.66C631.353 68.475 623.054 57.135 611.004 45.54C589.5 25 563.2 12.5 531.861 7.98C516.677 5.785 513.652 5.135 435.954 5H330.157Z" fill="url(#paint1_radial_2666_4805)"/>
<path d="M330.013 90C264.835 90 256.655 90.285 231.056 91.45C205.507 92.62 188.067 96.665 172.807 102.6C157.023 108.73 143.633 116.93 130.294 130.275C116.944 143.615 108.744 157.005 102.595 172.785C96.6448 188.05 92.5949 205.495 91.445 231.035C90.3 256.635 90 264.82 90 330C90 395.18 90.29 403.335 91.45 428.935C92.6249 454.485 96.6698 471.925 102.6 487.185C108.734 502.97 116.934 516.36 130.279 529.7C143.613 543.05 157.003 551.27 172.777 557.4C188.047 563.335 205.491 567.38 231.036 568.55C256.635 569.715 264.81 570 329.983 570C395.166 570 403.321 569.715 428.92 568.55C454.469 567.38 471.928 563.335 487.198 557.4C502.977 551.27 516.347 543.05 529.682 529.7C543.031 516.36 551.231 502.97 557.381 487.19C563.281 471.925 567.331 454.48 568.53 428.94C569.68 403.34 569.98 395.18 569.98 330C569.98 264.82 569.68 256.64 568.53 231.04C567.331 205.49 563.281 188.05 557.381 172.79C551.231 157.005 543.031 143.615 529.682 130.275C516.332 116.925 502.982 108.725 487.183 102.6C471.883 96.665 454.434 92.62 428.885 91.45C403.285 90.285 395.136 90 329.938 90H330.013ZM308.483 133.25C314.873 133.24 322.003 133.25 330.013 133.25C394.091 133.25 401.686 133.48 426.99 134.63C450.389 135.7 463.089 139.61 471.548 142.895C482.748 147.245 490.733 152.445 499.128 160.845C507.527 169.245 512.727 177.245 517.087 188.445C520.372 196.895 524.287 209.595 525.352 232.995C526.502 258.295 526.752 265.895 526.752 329.945C526.752 393.995 526.502 401.595 525.352 426.895C524.282 450.295 520.372 462.995 517.087 471.445C512.737 482.645 507.527 490.62 499.128 499.015C490.728 507.415 482.753 512.615 471.548 516.965C463.099 520.265 450.389 524.165 426.99 525.235C401.691 526.385 394.091 526.635 330.013 526.635C265.93 526.635 258.335 526.385 233.036 525.235C209.636 524.155 196.937 520.245 188.472 516.96C177.272 512.61 169.273 507.41 160.873 499.01C152.473 490.61 147.273 482.63 142.913 471.425C139.628 462.975 135.714 450.275 134.649 426.875C133.499 401.575 133.269 393.975 133.269 329.885C133.269 265.795 133.499 258.235 134.649 232.935C135.719 209.535 139.628 196.835 142.913 188.375C147.263 177.175 152.473 169.175 160.873 160.775C169.273 152.375 177.272 147.175 188.472 142.815C196.932 139.515 209.636 135.615 233.036 134.54C255.175 133.54 263.755 133.24 308.483 133.19V133.25ZM458.119 173.1C442.219 173.1 429.32 185.985 429.32 201.89C429.32 217.79 442.219 230.69 458.119 230.69C474.018 230.69 486.918 217.79 486.918 201.89C486.918 185.99 474.018 173.09 458.119 173.09V173.1ZM330.013 206.75C261.95 206.75 206.766 261.935 206.766 330C206.766 398.065 261.95 453.225 330.013 453.225C398.076 453.225 453.239 398.065 453.239 330C453.239 261.935 398.076 206.75 330.013 206.75ZM330.013 250C374.191 250 410.01 285.815 410.01 330C410.01 374.18 374.191 410 330.013 410C285.829 410 250.015 374.18 250.015 330C250.015 285.815 285.829 250 330.013 250Z" fill="white"/>
<defs>
<radialGradient id="paint0_radial_2666_4805" cx="0" cy="0" r="1" gradientUnits="userSpaceOnUse" gradientTransform="translate(177.684 705.004) rotate(-90) scale(644.144 599.249)">
<stop stop-color="#FFDD55"/>
<stop offset="0.1" stop-color="#FFDD55"/>
<stop offset="0.5" stop-color="#FF543E"/>
<stop offset="1" stop-color="#C837AB"/>
</radialGradient>
<radialGradient id="paint1_radial_2666_4805" cx="0" cy="0" r="1" gradientTransform="matrix(56.5288 282.334 -1164.05 233.083 -103.896 51.8209)" gradientUnits="userSpaceOnUse">
<stop stop-color="#3771C8"/>
<stop offset="0.128" stop-color="#3771C8"/>
<stop offset="1" stop-color="#6600FF" stop-opacity="0"/>
</radialGradient>
</defs>
</svg>
