<svg width="670" height="670" viewBox="0 0 670 670" fill="none" xmlns="http://www.w3.org/2000/svg">
<g clip-path="url(#clip0_2666_4798)">
<path d="M502.714 0H167.286C74.8966 0 0 74.8966 0 167.286V502.714C0 595.103 74.8966 670 167.286 670H502.714C595.103 670 670 595.103 670 502.714V167.286C670 74.8966 595.103 0 502.714 0Z" fill="url(#paint0_linear_2666_4798)"/>
<path d="M502.714 0H167.286C74.8966 0 0 74.8966 0 167.286V502.714C0 595.103 74.8966 670 167.286 670H502.714C595.103 670 670 595.103 670 502.714V167.286C670 74.8966 595.103 0 502.714 0Z" fill="url(#paint1_radial_2666_4798)"/>
<path fill-rule="evenodd" clip-rule="evenodd" d="M340.501 588.481C290.246 588.481 266.892 581.145 226.297 551.799C200.62 584.813 119.308 610.613 115.761 566.472C115.761 533.336 108.425 505.336 100.11 474.767C90.2063 437.106 78.957 395.166 78.957 334.396C78.957 189.257 198.052 80.0664 339.156 80.0664C480.382 80.0664 591.041 194.637 591.041 335.741C591.514 474.663 479.422 587.74 340.501 588.481ZM342.58 205.519C273.862 201.974 220.306 249.538 208.445 324.125C198.663 385.874 216.026 461.072 230.821 464.985C237.913 466.697 255.765 452.268 266.892 441.141C285.291 453.852 306.717 461.486 329.008 463.273C400.211 466.698 461.051 412.491 465.832 341.366C468.615 270.09 413.793 209.721 342.58 205.642V205.519Z" fill="white"/>
</g>
<defs>
<linearGradient id="paint0_linear_2666_4798" x1="78.9575" y1="509.559" x2="670" y2="335" gradientUnits="userSpaceOnUse">
<stop stop-color="#44CCFF"/>
<stop offset="0.662" stop-color="#5533EE"/>
<stop offset="1" stop-color="#9933DD"/>
</linearGradient>
<radialGradient id="paint1_radial_2666_4798" cx="0" cy="0" r="1" gradientUnits="userSpaceOnUse" gradientTransform="translate(-15.9398 -294.254) rotate(51.356) scale(813.057 335)">
<stop stop-color="#0000FF"/>
<stop offset="1" stop-opacity="0"/>
</radialGradient>
<clipPath id="clip0_2666_4798">
<rect width="670" height="670" fill="white"/>
</clipPath>
</defs>
</svg>
