<svg width="800" height="800" viewBox="0 0 800 800" fill="none" xmlns="http://www.w3.org/2000/svg">
<path d="M299.999 200L399.999 100M399.999 100L499.999 200M399.999 100V433.333M233.34 333.333C202.277 333.333 186.746 333.333 174.494 338.407C158.159 345.173 145.173 358.16 138.407 374.497C133.332 386.747 133.332 402.27 133.332 433.333V593.333C133.332 630.67 133.332 649.327 140.598 663.587C146.99 676.13 157.181 686.35 169.725 692.74C183.972 700 202.632 700 239.896 700H560.119C597.382 700 616.015 700 630.262 692.74C642.805 686.35 653.015 676.13 659.405 663.587C666.665 649.34 666.665 630.7 666.665 593.437V433.333C666.665 402.27 666.662 386.747 661.589 374.497C654.822 358.16 641.845 345.173 625.512 338.407C613.259 333.333 597.729 333.333 566.665 333.333" stroke="black" stroke-width="66.6667" stroke-linecap="round" stroke-linejoin="round"/>
</svg>
