<svg width="670" height="670" viewBox="0 0 670 670" fill="none" xmlns="http://www.w3.org/2000/svg">
<g clip-path="url(#clip0_2666_4802)">
<rect width="670" height="670" rx="150" fill="url(#paint0_linear_2666_4802)"/>
<path d="M335.14 670.279C520.232 670.279 670.279 520.232 670.279 335.14C670.279 150.047 520.232 0 335.14 0C150.047 0 0 150.047 0 335.14C0 520.232 150.047 670.279 335.14 670.279Z" fill="url(#paint1_linear_2666_4802)"/>
<path fill-rule="evenodd" clip-rule="evenodd" d="M144.406 311.247C255.75 262.891 329.873 230.761 367.094 215.173C473.03 170.953 495.298 163.318 509.614 163C512.795 163 519.794 163.636 524.566 167.454C528.384 170.635 529.338 174.771 529.974 177.952C530.61 181.133 531.247 187.814 530.61 192.904C524.884 253.348 500.07 400.004 487.345 467.446C481.937 496.078 471.439 505.621 461.259 506.576C438.99 508.484 422.13 491.942 400.815 477.944C367.094 455.994 348.324 442.314 315.557 420.682C277.701 395.868 302.196 382.189 323.829 359.92C329.555 354.194 427.22 265.118 429.128 257.165C429.446 256.211 429.446 252.393 427.22 250.485C424.993 248.576 421.811 249.212 419.266 249.848C415.767 250.485 362.322 286.115 258.295 356.42C243.025 366.919 229.345 372.009 216.939 371.69C203.259 371.372 177.173 364.055 157.449 357.693C133.59 350.058 114.502 345.922 116.093 332.561C117.047 325.562 126.591 318.563 144.406 311.247Z" fill="white"/>
</g>
<defs>
<linearGradient id="paint0_linear_2666_4802" x1="335" y1="0" x2="335" y2="670" gradientUnits="userSpaceOnUse">
<stop stop-color="#2AAAEC"/>
<stop offset="1" stop-color="#239FDA"/>
</linearGradient>
<linearGradient id="paint1_linear_2666_4802" x1="334.86" y1="0" x2="334.86" y2="664.977" gradientUnits="userSpaceOnUse">
<stop stop-color="#2AABEE"/>
<stop offset="1" stop-color="#229ED9"/>
</linearGradient>
<clipPath id="clip0_2666_4802">
<rect width="670" height="670" rx="150" fill="white"/>
</clipPath>
</defs>
</svg>
