<svg width="670" height="670" viewBox="0 0 670 670" fill="none" xmlns="http://www.w3.org/2000/svg">
<path d="M0 321.6C0 169.996 0 94.1945 47.0972 47.0972C94.1945 0 169.996 0 321.6 0H348.4C500.004 0 575.805 0 622.903 47.0972C670 94.1945 670 169.996 670 321.6V348.4C670 500.004 670 575.805 622.903 622.903C575.805 670 500.004 670 348.4 670H321.6C169.996 670 94.1945 670 47.0972 622.903C0 575.805 0 500.004 0 348.4V321.6Z" fill="#0077FF"/>
<path d="M356.491 482.7C203.786 482.7 116.688 378.012 113.059 203.812H189.55C192.063 331.671 248.453 385.829 293.12 396.996V203.812H365.148V314.083C409.256 309.337 455.592 259.087 471.225 203.812H543.252C531.247 271.929 480.997 322.179 445.264 342.838C480.997 359.588 538.229 403.417 560.004 482.7H480.718C463.689 429.658 421.26 388.621 365.148 383.037V482.7H356.491Z" fill="white"/>
</svg>
