<svg width="670" height="670" viewBox="0 0 670 670" fill="none" xmlns="http://www.w3.org/2000/svg">
<rect width="670" height="670" rx="150" fill="url(#paint0_linear_2666_4810)"/>
<path d="M106.978 332.793C106.963 373.2 117.522 412.65 137.597 447.428L105.055 566.247L226.648 534.364C260.149 552.62 297.868 562.258 336.255 562.27H336.354C462.769 562.27 565.665 459.401 565.72 332.973C565.744 271.703 541.907 214.099 498.598 170.753C455.297 127.414 397.709 103.533 336.344 103.504C209.923 103.504 107.033 206.358 106.978 332.793ZM336.354 562.27C336.352 562.27 336.35 562.27 336.354 562.27Z" fill="url(#paint1_linear_2666_4810)"/>
<path d="M98.8004 332.727C98.786 374.586 109.724 415.453 130.514 451.471L96.8047 574.543L222.76 541.518C257.465 560.443 296.535 570.417 336.299 570.433H336.401C467.342 570.433 573.943 463.866 573.998 332.911C574.02 269.44 549.325 209.763 504.47 164.87C459.607 119.976 399.957 95.2383 336.401 95.2109C205.432 95.2109 98.8512 201.757 98.7964 332.719M173.804 445.265L169.102 437.797C149.331 406.364 138.897 370.036 138.911 332.737C138.954 223.89 227.541 135.328 336.471 135.328C389.221 135.349 438.798 155.914 476.09 193.225C513.377 230.539 533.894 280.143 533.88 332.892C533.832 441.746 445.243 530.315 336.396 530.315H336.319C300.877 530.294 266.119 520.78 235.806 502.793L228.592 498.516L153.844 518.113L173.804 445.265ZM336.401 570.433C336.398 570.433 336.396 570.433 336.401 570.433Z" fill="url(#paint2_linear_2666_4810)"/>
<path fill-rule="evenodd" clip-rule="evenodd" d="M277.003 233.451C272.555 223.564 267.875 223.366 263.644 223.192C260.182 223.045 256.222 223.055 252.267 223.055C248.307 223.055 241.875 224.541 236.437 230.482C230.993 236.423 215.656 250.784 215.656 279.992C215.656 309.203 236.933 337.427 239.897 341.392C242.866 345.349 280.968 407.207 341.306 431.001C391.457 450.777 401.663 446.844 412.547 445.853C423.432 444.865 447.673 431.496 452.618 417.633C457.566 403.772 457.566 391.89 456.083 389.409C454.599 386.935 450.639 385.449 444.703 382.482C438.764 379.512 409.578 365.149 404.137 363.168C398.693 361.189 394.736 360.201 390.776 366.144C386.818 372.08 375.448 385.449 371.983 389.409C368.521 393.376 365.057 393.871 359.12 390.902C353.181 387.923 334.06 381.66 311.378 361.438C293.729 345.702 281.815 326.269 278.35 320.325C274.887 314.389 277.98 311.173 280.957 308.213C283.624 305.553 286.895 301.282 289.865 297.817C292.827 294.35 293.815 291.876 295.794 287.916C297.775 283.953 296.785 280.486 295.301 277.516C293.815 274.547 282.282 245.191 277.003 233.451Z" fill="white"/>
<defs>
<linearGradient id="paint0_linear_2666_4810" x1="335" y1="0" x2="335" y2="670" gradientUnits="userSpaceOnUse">
<stop stop-color="#58D164"/>
<stop offset="1" stop-color="#29B53F"/>
</linearGradient>
<linearGradient id="paint1_linear_2666_4810" x1="335.39" y1="566.199" x2="335.39" y2="103.455" gradientUnits="userSpaceOnUse">
<stop stop-color="#20B038"/>
<stop offset="1" stop-color="#60D66A"/>
</linearGradient>
<linearGradient id="paint2_linear_2666_4810" x1="335.405" y1="574.557" x2="335.405" y2="95.2253" gradientUnits="userSpaceOnUse">
<stop stop-color="#F9F9F9"/>
<stop offset="1" stop-color="white"/>
</linearGradient>
</defs>
</svg>
